Coordinates
version=1
nRows=13
nColumns=22
inDegrees=yes

Units are S.I. units (second, meters, Newtons, ...)
If the header above contains a line with 'inDegrees', this indicates whether rotational values are in degrees (yes) or radians (no).

endheader
time	pelvis_tilt	pelvis_list	pelvis_rotation	pelvis_tx	pelvis_ty	pelvis_tz	hip_flexion_r	hip_adduction_r	hip_rotation_r	knee_angle_r	ankle_angle_r	subtalar_angle_r	hip_flexion_l	hip_adduction_l	hip_rotation_l	knee_angle_l	ankle_angle_l	subtalar_angle_l	lumbar_extension	lumbar_bending	lumbar_rotation
      1.38000000	     -3.06943284	     -4.62493050	     -0.11716144	     -1.71045132	      1.00852769	     -0.00548538	      3.97941648	      3.20168007	     -6.75068077	    -15.05934901	     10.67261188	      0.65441484	     -0.69124662	    -10.64622654	     -9.39057161	     -9.52714005	     11.03708466	      3.32719852	     -2.55522149	      2.39879297	     -2.71320533
      1.39000000	     -3.12792055	     -4.66385515	     -0.08695344	     -1.70986805	      1.00832867	     -0.00418986	      3.99232085	      3.32263420	     -6.76495643	    -15.04873437	     10.74497965	      0.63223096	     -0.49721578	    -10.80055875	     -9.32481792	     -9.82624869	     11.13090222	      3.48576235	     -2.53780572	      2.50238024	     -2.70566135
      1.40000000	     -3.21433722	     -4.70006385	     -0.05842204	     -1.70933865	      1.00807465	     -0.00284218	      4.05607096	      3.44191937	     -6.76779974	    -15.07159994	     10.79917027	      0.60475450	     -0.23209167	    -10.96033552	     -9.23668082	    -10.19490052	     11.23497451	      3.70626965	     -2.49976486	      2.60169394	     -2.70470197
      1.41000000	     -3.27467682	     -4.75142354	     -0.02505253	     -1.70878155	      1.00782162	     -0.00144508	      4.08516270	      3.58053853	     -6.78998721	    -15.08492371	     10.90991009	      0.57575400	      0.03770959	    -11.14404776	     -9.14112153	    -10.62497466	     11.37443598	      3.83836445	     -2.49526929	      2.71739294	     -2.68984143
      1.42000000	     -3.35533545	     -4.80372944	      0.01344352	     -1.70826061	      1.00752178	     -0.00001058	      4.15341679	      3.72185648	     -6.80119612	    -15.12862909	     11.00785089	      0.53911401	      0.38168570	    -11.33674533	     -9.02275243	    -11.14388899	     11.51980388	      4.00205420	     -2.47500372	      2.83714370	     -2.68652935
      1.43000000	     -3.46329839	     -4.84930639	      0.04780505	     -1.70779304	      1.00717573	      0.00148825	      4.27847189	      3.85858710	     -6.79609215	    -15.21824398	     11.07217345	      0.48854944	      0.79979362	    -11.52848127	     -8.87357635	    -11.73895039	     11.65948576	      4.22215165	     -2.43506328	      2.94722568	     -2.69056268
      1.44000000	     -3.54235896	     -4.89571105	      0.08905848	     -1.70728937	      1.00685134	      0.00303339	      4.36798490	      4.00051625	     -6.79562309	    -15.30382860	     11.17554282	      0.42938122	      1.22557823	    -11.72728266	     -8.72144265	    -12.40454143	     11.80864015	      4.40053307	     -2.42934873	      3.05682808	     -2.68874486
      1.45000000	     -3.61584041	     -4.93747899	      0.13490527	     -1.70678515	      1.00652737	      0.00462707	      4.46141333	      4.14072237	     -6.79239259	    -15.40785752	     11.28485479	      0.36173762	      1.68703180	    -11.92625142	     -8.55213285	    -13.14274785	     11.95011307	      4.57380326	     -2.43462788	      3.15937559	     -2.68975946
      1.46000000	     -3.68485998	     -4.96687906	      0.18687410	     -1.70626868	      1.00621078	      0.00626023	      4.55593012	      4.27078945	     -6.78320063	    -15.52577081	     11.40158730	      0.28448274	      2.18725309	    -12.11632313	     -8.37151533	    -13.95668011	     12.06761671	      4.75291514	     -2.44693730	      3.24700795	     -2.69608329
      1.47000000	     -3.74133427	     -4.98576736	      0.24281693	     -1.70576212	      1.00591431	      0.00795777	      4.64771152	      4.39432615	     -6.77048428	    -15.66226881	     11.52006296	      0.20571456	      2.71715434	    -12.30007238	     -8.17351882	    -14.84423658	     12.16211820	      4.92461924	     -2.48062316	      3.31734975	     -2.70831780
      1.48000000	     -3.78971762	     -4.98778544	      0.30453054	     -1.70524554	      1.00564072	      0.00968477	      4.73379038	      4.50093392	     -6.75516117	    -15.80523839	     11.64087892	      0.12690225	      3.28639949	    -12.46847217	     -7.96168966	    -15.81591950	     12.21834786	      5.09571262	     -2.52589974	      3.36671521	     -2.71971403
      1.49000000	     -3.82382128	     -4.97357554	      0.37354222	     -1.70472566	      1.00539797	      0.01145748	      4.80485675	      4.59387569	     -6.73790703	    -15.95045992	     11.76949798	      0.05218404	      3.89709152	    -12.62444093	     -7.74073926	    -16.88467391	     12.23132999	      5.25910886	     -2.59133700	      3.39473505	     -2.73744395
      1.50000000	     -3.84548472	     -4.94392241	      0.45034972	     -1.70420179	      1.00519086	      0.01326874	      4.85985567	      4.67273335	     -6.72010939	    -16.09098752	     11.89924327	     -0.01554290	      4.55905132	    -12.76835795	     -7.50853033	    -18.06407306	     12.18979398	      5.41504460	     -2.67466529	      3.39920622	     -2.75924218
